<?xml version="1.0" standalone="no"?>
<!DOCTYPE svg PUBLIC "-//W3C//DTD SVG 20010904//EN"
 "http://www.w3.org/TR/2001/REC-SVG-20010904/DTD/svg10.dtd">
<svg version="1.0" xmlns="http://www.w3.org/2000/svg"
 width="351.000000pt" height="351.000000pt" viewBox="0 0 351.000000 351.000000"
 preserveAspectRatio="xMidYMid meet">
<metadata>
Created by potrace 1.14, written by Peter Selinger 2001-2017
</metadata>
<g transform="translate(0.000000,351.000000) scale(0.100000,-0.100000)"
fill="#000000" stroke="none">
<path d="M1420 3341 c-46 -14 -88 -40 -110 -68 -20 -26 -26 -28 -81 -25 -80 5
-140 -24 -181 -87 -28 -43 -29 -51 -26 -126 4 -61 11 -92 30 -130 61 -119 204
-200 388 -221 l57 -6 44 51 c143 166 186 334 119 467 -40 80 -81 121 -143 139
-56 16 -61 17 -97 6z"/>
<path d="M1897 2960 c-77 -49 -137 -165 -137 -265 0 -85 66 -242 135 -322 l33
-38 77 3 c153 5 277 51 346 129 51 59 83 138 83 209 0 71 -20 111 -77 158 -32
26 -48 31 -105 34 -62 4 -69 6 -84 32 -9 16 -35 42 -59 59 -36 27 -51 31 -104
31 -51 0 -69 -5 -108 -30z"/>
<path d="M2410 2231 l-645 -187 0 -130 c1 -90 6 -148 18 -193 87 -321 382
-552 710 -555 l97 -1 10 -35 c5 -19 42 -150 83 -290 l73 -255 -109 -54 c-227
-112 -292 -241 -155 -309 157 -78 577 5 817 161 95 62 140 116 141 168 0 100
-129 145 -339 120 -51 -7 -96 -10 -98 -7 -3 3 -36 110 -73 238 -37 128 -75
256 -83 285 l-16 52 52 29 c168 96 303 279 352 477 35 141 19 325 -41 467 -30
72 -121 208 -138 207 -6 0 -301 -85 -656 -188z"/>
<path d="M397 2375 c-15 -19 -45 -68 -67 -107 -160 -301 -101 -665 146 -903
34 -33 90 -76 123 -95 33 -19 61 -42 60 -50 0 -8 -35 -139 -78 -290 l-78 -275
-54 5 c-253 23 -389 -16 -389 -114 0 -95 164 -212 406 -291 135 -45 255 -65
385 -65 167 0 239 36 239 120 0 75 -89 156 -252 230 -43 19 -77 39 -78 43 0 6
132 479 156 560 5 14 18 17 87 17 340 1 625 226 722 570 21 72 28 292 10 308
-9 9 -1280 372 -1301 372 -5 0 -22 -16 -37 -35z"/>
</g>
</svg>
